# xmcd
#
# Track frame offsets: 
#        300
#        6286
#        44198
#        76752
#        110262
#        140944
#        175417
#        202144
#        235740
#
# Disc length: 3817 seconds
#
# Revision: 3
# Processed by: cddbd v1.5.2PL0 Copyright (c) Steve Scherf et al.
# Submitted via: ExactAudioCopy v1.0b1
#
DISCID=810ee509
DTITLE=Johnny Heartsman and Blues Company - Made In Germany
DYEAR=1994
DGENRE=
TTITLE0=Intro
TTITLE1=That's Allright
TTITLE2=Flute Juice
TTITLE3=Cold Cold Feeling
TTITLE4=I Don't Want No Woman
TTITLE5=Let Me Love You
TTITLE6=Ain't No Sunshine
TTITLE7=Sweet Frisco Blues
TTITLE8=Flip, Flop and Fly
EXTD=
EXTT0=
EXTT1=
EXTT2=
EXTT3=
EXTT4=
EXTT5=
EXTT6=
EXTT7=
EXTT8=
PLAYORDER=
